<?xml version="1.0" encoding="UTF-8" standalone="no"?>
<!DOCTYPE svg PUBLIC "-//W3C//DTD SVG 1.1//EN" "http://www.w3.org/Graphics/SVG/1.1/DTD/svg11.dtd">
<svg xmlns="http://www.w3.org/2000/svg" version="1.1" viewBox="0.00 0.00 1024.00 1024.00">
<g stroke-width="2.00" fill="none" stroke-linecap="butt">
<path stroke="#d1ced1" vector-effect="non-scaling-stroke" d="
  M 279.44 437.97
  Q 281.01 435.96 280.66 433.63
  Q 280.17 430.39 280.17 430.31
  Q 280.02 417.62 280.34 408.77
  A 1.88 1.88 0.0 0 0 278.54 406.83
  L 267.03 406.31
  A 0.39 0.39 0.0 0 1 266.66 405.94
  Q 266.66 405.74 267.21 405.53"
/>
<path stroke="#d1ced1" vector-effect="non-scaling-stroke" d="
  M 197.32 438.44
  Q 188.55 438.13 180.24 442.28
  Q 172.00 446.39 164.86 452.91
  Q 158.32 458.89 153.78 467.83
  Q 148.55 478.15 146.46 488.94
  Q 145.86 492.08 145.87 493.75
  Q 145.91 497.24 145.52 498.57
  Q 145.05 500.16 146.01 502.85
  Q 147.10 505.89 148.41 511.32
  Q 148.89 513.31 153.57 524.91
  A 7.61 7.45 -76.0 0 0 154.65 526.75
  L 164.28 538.87
  A 1.50 1.33 85.4 0 0 164.55 539.13
  Q 171.32 543.79 173.83 545.35
  Q 177.27 547.50 188.34 551.42
  Q 192.77 552.99 198.63 553.66
  A 1.40 1.38 1.3 0 1 199.87 554.94
  L 200.93 568.76
  A 0.27 0.27 0.0 0 0 201.45 568.83
  Q 201.99 567.25 201.82 565.19"
/>
<path stroke="#d1ced1" vector-effect="non-scaling-stroke" d="
  M 170.05 578.45
  Q 170.32 577.92 170.49 577.85
  A 0.53 0.53 0.0 0 0 170.49 576.86
  Q 167.30 575.63 164.67 573.24
  A 2.51 2.48 75.9 0 0 163.83 572.73
  Q 157.53 570.47 153.31 567.35
  Q 151.63 566.11 150.90 566.09
  A 0.15 0.10 55.3 0 1 150.82 566.06
  L 136.38 554.53
  A 2.06 1.94 -88.3 0 1 135.91 554.00
  L 131.89 547.33
  A 0.45 0.12 75.1 0 0 131.85 547.26
  Q 126.88 541.02 124.00 536.50
  Q 120.71 531.34 118.95 524.73
  Q 116.04 513.81 114.98 503.67
  A 0.36 0.36 0.0 0 0 114.61 503.35
  Q 114.35 503.36 114.21 503.56"
/>
<path stroke="#d1ced1" vector-effect="non-scaling-stroke" d="
  M 152.51 421.25
  Q 165.01 414.75 177.15 410.56
  A 3.73 3.21 15.6 0 0 177.79 410.26
  Q 180.00 408.91 177.83 409.20"
/>
<path stroke="#d1ced1" vector-effect="non-scaling-stroke" d="
  M 759.18 429.20
  Q 763.09 433.47 763.87 438.12
  Q 764.80 443.61 761.41 447.61
  Q 757.27 452.48 750.29 451.93
  A 0.78 0.43 -16.0 0 1 750.16 451.90
  L 745.67 450.55
  A 2.43 2.41 71.8 0 1 744.85 450.13
  Q 738.60 445.25 739.58 435.46"
/>
<path stroke="#d1ced1" vector-effect="non-scaling-stroke" d="
  M 554.17 495.04
  Q 559.80 485.30 561.64 477.77
  Q 562.99 472.26 561.07 464.24
  A 0.55 0.55 0.0 0 0 560.72 463.85
  Q 560.61 463.80 560.57 463.79
  A 0.91 0.90 -73.6 0 1 560.09 462.90
  Q 560.34 460.39 558.67 457.87
  A 1.92 1.74 -75.8 0 1 558.50 457.55
  Q 555.36 449.99 550.82 445.92
  C 545.73 441.36 538.70 438.12 531.38 436.76
  Q 524.92 435.56 523.76 435.50
  Q 512.61 434.95 501.55 439.48
  Q 501.08 439.67 497.37 441.33
  Q 494.69 442.53 493.35 443.48
  Q 485.80 448.82 482.99 454.78
  C 480.42 460.23 478.72 465.70 478.40 471.35
  A 1.26 1.26 0.0 0 0 479.66 472.69
  L 498.23 472.69
  A 1.26 1.25 -88.0 0 0 499.48 471.52
  Q 499.93 464.75 503.96 459.52
  Q 511.36 449.90 523.40 451.71
  C 530.95 452.85 536.96 458.66 540.05 465.37
  C 542.08 469.77 541.73 473.74 540.82 478.47
  Q 540.28 481.28 538.40 484.21
  Q 534.87 489.73 529.91 493.93
  Q 529.30 494.44 528.72 494.81
  A 1.00 0.00 -32.9 0 0 527.89 495.35
  Q 524.56 498.46 518.53 502.70
  C 511.87 507.36 505.18 513.68 497.51 517.97
  A 3.20 2.10 0.4 0 0 497.14 518.21
  L 479.80 531.16
  A 3.63 3.63 0.0 0 0 478.34 534.07
  L 478.34 549.20
  A 1.12 1.11 2.2 0 0 479.37 550.31
  L 488.53 551.01"
/>
<path stroke="#d1ced1" vector-effect="non-scaling-stroke" d="
  M 549.21 532.10
  Q 548.34 532.08 548.22 532.67
  A 0.39 0.38 -84.4 0 0 548.59 533.13
  L 559.23 533.13
  A 1.35 1.35 0.0 0 1 560.58 534.51
  L 560.39 545.36
  A 0.56 0.52 -54.4 0 0 560.42 545.59
  Q 561.03 547.39 561.27 549.05
  A 1.10 1.10 0.0 0 1 560.26 550.30
  C 558.12 550.47 554.54 549.61 552.94 551.27"
/>
<path stroke="#d1ced1" vector-effect="non-scaling-stroke" d="
  M 401.47 435.06
  Q 400.10 435.36 398.73 435.18"
/>
<path stroke="#d1ced1" vector-effect="non-scaling-stroke" d="
  M 410.05 454.90
  Q 409.50 454.81 409.05 454.92"
/>
<path stroke="#d1ced1" vector-effect="non-scaling-stroke" d="
  M 437.06 510.31
  L 424.78 510.35"
/>
<path stroke="#d1ced1" vector-effect="non-scaling-stroke" d="
  M 412.96 510.61
  L 410.54 510.58"
/>
<path stroke="#d1ced1" vector-effect="non-scaling-stroke" d="
  M 404.30 553.16
  Q 403.78 552.78 403.17 553.13"
/>
<path stroke="#d1ced1" vector-effect="non-scaling-stroke" d="
  M 812.30 468.08
  L 812.14 468.54
  A 0.50 0.50 0.0 0 0 812.62 469.20
  L 826.78 469.20
  A 1.62 1.62 0.0 0 1 828.40 470.82
  L 828.40 483.15
  A 1.54 1.54 0.0 0 1 826.86 484.69
  L 812.29 484.69
  A 2.11 2.10 -88.3 0 0 810.19 486.67
  Q 809.98 490.11 810.32 495.00
  Q 810.53 498.08 810.25 503.01
  C 810.03 506.77 810.61 510.54 810.29 513.97
  C 809.98 517.39 810.22 519.51 810.10 523.08
  Q 809.94 527.54 811.23 529.75
  C 814.74 535.82 822.33 535.33 828.31 535.08
  A 1.20 1.20 0.0 0 1 829.56 536.28
  L 829.56 548.63
  A 1.40 1.40 0.0 0 1 828.22 550.03
  L 812.64 550.67
  A 2.94 2.80 -35.1 0 1 811.58 550.51
  Q 810.82 550.28 808.85 550.13
  Q 808.79 550.13 807.23 549.45
  Q 806.51 549.14 805.53 548.89
  Q 795.90 546.48 791.96 537.55
  Q 790.50 534.23 790.65 526.79
  Q 791.03 508.10 791.17 503.75
  Q 791.28 500.46 789.30 490.27"
/>
<path stroke="#d1ced1" vector-effect="non-scaling-stroke" d="
  M 773.05 470.04
  Q 775.78 469.72 776.51 469.73
  Q 781.60 469.79 784.24 468.33"
/>
<path stroke="#d1ced1" vector-effect="non-scaling-stroke" d="
  M 816.97 485.86
  L 812.46 485.84"
/>
<path stroke="#d1ced1" vector-effect="non-scaling-stroke" d="
  M 811.13 504.46
  L 811.11 508.23"
/>
<path stroke="#d1ced1" vector-effect="non-scaling-stroke" d="
  M 625.80 545.58
  Q 626.88 545.39 627.10 546.60
  Q 627.33 547.87 628.60 549.28
  A 1.52 1.51 -21.3 0 0 629.75 549.78
  L 639.98 549.65
  A 0.61 0.51 49.7 0 1 640.16 549.68
  Q 641.98 550.36 644.08 550.02
  A 1.83 1.83 0.0 0 0 645.61 548.16
  C 645.43 541.58 646.09 533.69 645.96 525.92
  Q 645.60 504.66 645.71 498.50
  Q 645.73 496.87 645.39 493.91
  A 1.93 1.90 23.5 0 0 645.01 492.97
  Q 643.89 491.51 644.16 489.40
  A 1.36 1.33 -56.4 0 0 644.00 488.56
  L 643.45 487.57
  A 1.04 1.02 -59.2 0 1 643.32 487.03
  Q 643.32 485.05 642.45 484.24
  A 1.20 1.16 -67.1 0 1 642.08 483.29
  Q 642.17 481.81 641.39 481.40
  A 1.63 1.62 88.4 0 1 640.77 480.81
  Q 636.87 474.55 634.15 472.99
  Q 628.12 469.53 624.91 468.54
  Q 622.65 467.85 614.51 466.90
  Q 608.76 466.23 604.01 467.06
  Q 594.82 468.67 589.64 471.47
  Q 581.95 475.62 577.99 482.83
  Q 575.63 487.13 575.38 493.07
  A 1.05 1.05 0.0 0 0 576.43 494.17
  L 592.25 494.17
  A 1.20 1.20 0.0 0 0 593.43 493.20
  Q 594.96 485.53 602.92 481.97
  C 605.95 480.61 610.31 480.62 613.05 480.96
  Q 618.06 481.57 623.08 485.80
  A 3.60 3.51 -85.2 0 1 623.83 486.71
  Q 626.27 491.02 627.38 496.23
  A 1.26 1.20 43.7 0 1 627.40 496.67
  L 627.03 499.64
  A 2.01 2.00 -88.6 0 1 625.21 501.38
  L 593.94 503.77
  A 1.86 1.67 29.7 0 0 593.48 503.87
  L 584.78 507.01
  A 4.39 4.19 -70.3 0 0 583.96 507.42
  Q 571.77 515.39 572.90 530.98
  Q 573.59 540.50 581.17 546.63
  Q 584.02 548.92 590.34 551.52
  A 6.92 6.86 59.9 0 0 592.08 551.99
  Q 602.42 553.43 612.26 549.45
  Q 617.73 547.24 622.83 542.86"
/>
<path stroke="#d1ced1" vector-effect="non-scaling-stroke" d="
  M 688.38 516.53
  Q 686.64 514.42 685.82 512.00
  Q 684.64 508.50 684.62 508.46
  Q 682.16 502.39 681.31 497.79
  A 3.15 3.09 26.0 0 0 680.98 496.86
  Q 679.32 493.69 678.02 488.04
  Q 677.85 487.33 676.85 485.37
  A 9.62 9.60 24.4 0 1 676.07 483.30
  Q 674.58 477.15 671.58 470.68
  Q 670.51 468.39 668.01 468.42
  Q 653.95 468.59 652.77 468.28
  C 650.58 467.70 649.87 469.43 650.65 471.36
  Q 658.13 489.83 659.47 492.73
  Q 660.53 495.02 659.79 495.89"
/>
<path stroke="#d1ced1" vector-effect="non-scaling-stroke" d="
  M 732.32 474.53
  Q 729.26 480.18 724.99 492.44
  Q 723.83 495.75 715.97 513.11
  Q 714.97 515.31 714.62 516.42
  C 713.68 519.35 712.34 521.70 711.30 524.72
  Q 708.14 533.86 702.55 548.19
  A 2.30 2.29 10.6 0 1 700.41 549.65
  L 683.54 549.65
  A 2.81 2.81 0.0 0 1 680.80 547.45
  Q 679.73 542.62 676.64 538.21"
/>
<path stroke="#d1ced1" vector-effect="non-scaling-stroke" d="
  M 696.34 515.37
  Q 700.76 506.42 703.25 496.71
  A 4.56 4.15 -27.1 0 1 703.60 495.78
  Q 704.83 493.39 705.50 490.94
  Q 705.98 489.21 707.47 485.60
  Q 710.10 479.23 711.96 472.47
  Q 712.54 470.34 715.26 467.91"
/>
<path stroke="#d1ced1" vector-effect="non-scaling-stroke" d="
  M 754.13 467.94
  L 761.39 468.80
  A 0.98 0.98 0.0 0 1 762.14 469.34
  Q 762.59 470.24 763.27 470.74"
/>
<path stroke="#d1ced1" vector-effect="non-scaling-stroke" d="
  M 763.20 485.68
  Q 762.49 496.24 762.60 506.80
  Q 762.77 524.08 762.66 527.71
  Q 762.36 537.38 762.69 548.62
  A 1.44 1.43 -1.0 0 1 761.25 550.10
  L 744.75 550.10
  A 1.44 1.44 0.0 0 1 743.31 548.65
  Q 743.47 526.26 743.61 521.42
  C 744.01 507.46 743.56 495.96 743.48 480.75
  Q 743.47 478.87 742.22 478.26"
/>
<path stroke="#d1ced1" vector-effect="non-scaling-stroke" d="
  M 755.79 551.14
  L 751.79 551.14"
/>
<path stroke="#d1ced1" vector-effect="non-scaling-stroke" d="
  M 749.21 551.15
  L 746.96 551.12"
/>
<path stroke="#d1ced1" vector-effect="non-scaling-stroke" d="
  M 878.16 519.15
  L 868.71 492.59
  A 2.29 2.13 -69.5 0 0 868.59 492.30
  L 866.71 488.54
  A 3.71 3.68 26.3 0 1 866.44 487.75
  Q 865.97 485.44 864.75 483.55
  A 3.65 3.56 -70.8 0 1 864.37 482.74
  Q 862.77 477.52 860.52 473.12
  Q 859.92 471.96 859.92 471.43
  Q 859.90 470.37 858.38 469.54
  A 0.80 0.75 57.9 0 0 858.11 469.47
  L 840.30 469.41
  A 1.51 1.51 0.0 0 0 838.94 471.58
  Q 841.36 476.51 843.74 482.49
  Q 845.53 486.97 848.00 492.85
  Q 853.51 505.91 858.60 519.62
  Q 859.75 522.70 860.48 524.34
  Q 861.96 527.65 862.37 529.02
  Q 865.17 538.31 869.19 546.94
  A 6.03 6.01 42.6 0 1 869.39 551.58
  C 867.04 557.92 865.05 562.01 863.25 567.72
  Q 860.43 576.65 857.25 582.87
  A 2.29 2.18 -8.0 0 1 856.71 583.55
  Q 856.51 583.72 856.50 583.80
  A 1.14 0.88 3.4 0 0 857.68 584.83
  Q 862.14 584.83 874.15 584.68
  A 1.81 1.79 -73.3 0 0 875.63 583.87
  Q 877.11 581.64 877.87 579.37
  C 880.70 570.85 884.00 566.33 886.30 558.96
  Q 887.84 554.02 892.15 544.28
  C 897.01 533.29 900.62 522.72 905.08 512.31
  Q 908.51 504.29 912.40 495.52
  Q 913.27 493.57 916.02 485.94
  Q 917.97 480.50 920.00 476.48
  Q 921.39 473.73 922.33 470.28
  A 0.92 0.91 7.5 0 0 921.44 469.13
  L 903.79 469.13
  A 3.09 3.07 10.3 0 0 900.90 471.12
  C 898.64 477.08 896.89 483.53 893.98 490.39
  Q 892.12 494.77 890.75 499.26
  Q 888.90 505.27 886.06 510.05"
/>
<path stroke="#d1ced1" vector-effect="non-scaling-stroke" d="
  M 260.27 550.21
  Q 259.89 550.23 259.76 550.01
  Q 259.47 549.52 259.92 549.17
  Q 265.81 544.50 271.71 539.45
  Q 283.18 529.62 286.11 514.50
  Q 286.55 512.18 286.11 509.46
  Q 285.77 507.41 286.02 504.33
  A 5.81 5.66 44.2 0 0 285.99 503.21
  Q 285.59 500.13 285.20 498.28
  Q 284.36 494.29 280.69 487.06
  Q 277.59 480.95 270.70 476.69
  Q 268.41 475.28 263.17 473.85
  Q 260.25 473.06 255.49 471.24
  A 7.81 7.71 54.7 0 0 252.62 470.73
  Q 229.03 471.01 204.65 470.79
  C 201.20 470.76 198.07 471.15 195.51 473.03
  Q 191.03 476.30 189.02 477.17
  A 2.49 2.45 -76.5 0 0 188.38 477.57
  Q 184.92 480.47 181.97 486.50
  C 181.40 487.66 181.76 488.68 181.45 489.55
  Q 179.94 493.71 180.47 499.59
  A 0.54 0.53 -2.3 0 0 181.01 500.08
  L 187.90 500.08
  A 0.54 0.54 0.0 0 1 188.44 500.59
  L 188.46 501.00"
/>
<path stroke="#d1ced1" vector-effect="non-scaling-stroke" d="
  M 182.21 500.91
  Q 181.64 500.48 180.71 500.81"
/>
<path stroke="#d1ced1" vector-effect="non-scaling-stroke" d="
  M 269.46 551.64
  Q 268.99 551.75 269.17 552.09
  Q 269.57 552.85 270.56 552.84
  Q 281.23 552.79 287.32 552.58
  A 1.02 1.01 -88.0 0 1 288.37 553.71
  Q 287.68 559.84 287.96 566.76
  Q 288.37 576.90 288.61 582.55
  A 1.13 1.13 0.0 0 1 287.36 583.72
  Q 282.39 583.17 277.57 583.32
  Q 276.36 583.36 276.79 584.71"
/>
<path stroke="#d1ced1" vector-effect="non-scaling-stroke" d="
  M 214.63 584.96
  Q 218.19 584.75 220.37 584.80
  Q 220.58 584.80 220.67 584.72
  Q 220.96 584.49 220.83 584.14
  A 0.47 0.45 78.1 0 0 220.39 583.84
  L 216.09 584.00
  A 1.59 1.59 0.0 0 1 214.44 582.46
  L 214.21 575.22"
/>
<path stroke="#d1ced1" vector-effect="non-scaling-stroke" d="
  M 214.05 560.50
  Q 215.61 557.11 215.18 553.19
  A 1.37 1.36 -31.7 0 1 215.40 552.27
  C 217.32 549.40 219.92 548.02 222.57 545.87
  Q 229.60 540.16 236.47 533.75
  A 0.33 0.33 0.0 0 0 236.41 533.22
  Q 236.28 533.14 235.69 533.21"
/>
<path stroke="#d1ced1" vector-effect="non-scaling-stroke" d="
  M 407.63 508.04
  A 1.22 1.22 0.0 0 0 408.84 509.39
  L 439.33 509.39
  A 1.82 1.82 0.0 0 1 441.09 511.69
  Q 439.16 518.79 433.68 524.23
  Q 432.23 525.66 429.15 528.14
  Q 426.27 530.46 424.14 531.44
  Q 419.93 533.38 414.44 533.58
  A 4.56 4.34 35.1 0 0 413.50 533.72
  Q 408.34 535.05 407.00 534.93
  C 396.99 534.07 385.67 529.60 378.34 522.25
  C 375.43 519.33 374.04 515.97 371.99 511.80
  Q 369.15 506.02 369.05 499.74
  Q 369.04 499.36 368.64 499.06
  A 0.49 0.48 17.5 0 1 368.44 498.69
  L 368.18 494.46
  A 4.29 4.26 -37.1 0 1 368.43 492.71
  Q 369.08 491.48 369.53 486.78
  Q 369.85 483.47 371.78 477.75
  Q 373.58 472.41 375.65 469.32
  Q 382.20 459.56 393.36 455.39
  Q 397.06 454.01 402.19 453.60
  C 418.11 452.34 431.26 456.74 437.80 471.79
  A 1.94 1.93 -12.0 0 0 439.59 472.95
  L 459.38 472.76
  A 0.64 0.48 26.6 0 0 459.60 472.72
  L 460.92 472.24
  A 0.56 0.56 0.0 0 0 461.23 471.48
  L 456.63 461.29
  A 3.99 3.91 12.9 0 0 456.04 460.37
  Q 454.64 458.76 453.33 455.87
  A 4.79 4.27 -78.6 0 0 452.85 455.05
  Q 449.58 450.59 442.94 445.89
  Q 438.55 442.79 435.75 442.38
  A 1.99 1.90 60.3 0 1 435.21 442.22
  L 424.17 437.49
  A 2.39 2.35 61.4 0 0 423.61 437.32
  Q 415.69 435.98 406.34 436.14
  C 398.93 436.27 396.58 436.00 390.11 437.81
  Q 380.79 440.42 374.21 443.72
  Q 364.52 448.59 357.53 458.30
  Q 353.46 463.96 352.30 469.16
  A 4.76 4.38 -28.6 0 1 352.02 469.98
  Q 350.68 472.91 350.46 475.27
  Q 350.31 476.83 349.60 477.60
  A 1.04 1.03 -31.1 0 0 349.36 478.54
  Q 349.44 478.86 348.95 483.81
  Q 348.25 490.83 348.44 498.13
  Q 348.60 504.77 349.84 510.29
  Q 351.27 516.68 353.60 521.92
  Q 360.97 538.57 377.35 545.93
  Q 384.38 549.09 388.17 550.10
  Q 400.04 553.26 409.53 552.27
  Q 413.84 551.82 418.88 551.20
  Q 424.54 550.51 428.06 549.32
  Q 447.18 542.83 457.76 525.81
  C 459.83 522.49 461.95 517.38 462.20 514.23
  Q 462.44 511.23 462.71 509.87
  Q 463.08 508.00 462.98 505.49
  Q 462.96 504.88 463.18 496.15
  A 1.56 1.55 6.6 0 0 461.93 494.58
  Q 457.75 493.73 453.49 493.86
  Q 431.96 494.51 409.60 493.63
  Q 406.93 493.53 407.41 495.90
  Q 408.34 500.51 408.35 501.36
  A 0.58 0.21 -64.9 0 1 408.34 501.47
  L 407.63 508.04"
/>
<path stroke="#d1ced1" vector-effect="non-scaling-stroke" d="
  M 624.10 513.66
  Q 624.16 512.68 623.25 512.75
  Q 612.92 513.59 606.23 513.82
  Q 600.32 514.03 596.33 517.86
  Q 592.67 521.35 592.74 525.32
  C 592.81 529.90 594.91 533.37 598.89 535.61
  Q 601.68 537.18 602.53 537.25
  Q 606.13 537.53 608.15 537.83
  A 3.16 3.05 42.9 0 0 609.20 537.81
  Q 620.62 535.78 625.42 524.97
  A 2.73 2.67 61.4 0 0 625.65 524.15
  Q 625.93 521.87 626.38 519.28
  Q 626.62 517.90 625.85 517.31
  A 0.29 0.29 0.0 0 0 625.38 517.53
  L 625.13 522.07"
/>
<path stroke="#d1ced1" vector-effect="non-scaling-stroke" d="
  M 593.75 525.04
  L 593.88 526.82"
/>
</g>
<path fill="#efebee" d="
  M 279.44 437.97
  Q 281.01 435.96 280.66 433.63
  Q 280.17 430.39 280.17 430.31
  Q 280.02 417.62 280.34 408.77
  A 1.88 1.88 0.0 0 0 278.54 406.83
  L 267.03 406.31
  A 0.39 0.39 0.0 0 1 266.66 405.94
  Q 266.66 405.74 267.21 405.53
  L 280.46 405.23
  A 1.08 1.08 0.0 0 1 281.56 406.31
  L 281.56 437.04
  A 0.82 0.81 -11.4 0 1 281.06 437.79
  Q 280.49 438.02 279.44 437.97
  Z"
/>
<path fill="#b2b0b3" d="
  M 267.21 405.53
  Q 266.66 405.74 266.66 405.94
  A 0.39 0.39 0.0 0 0 267.03 406.31
  L 278.54 406.83
  A 1.88 1.88 0.0 0 1 280.34 408.77
  Q 280.02 417.62 280.17 430.31
  Q 280.17 430.39 280.66 433.63
  Q 281.01 435.96 279.44 437.97
  L 197.32 438.44
  Q 188.55 438.13 180.24 442.28
  Q 172.00 446.39 164.86 452.91
  Q 158.32 458.89 153.78 467.83
  Q 148.55 478.15 146.46 488.94
  Q 145.86 492.08 145.87 493.75
  Q 145.91 497.24 145.52 498.57
  Q 145.05 500.16 146.01 502.85
  Q 147.10 505.89 148.41 511.32
  Q 148.89 513.31 153.57 524.91
  A 7.61 7.45 -76.0 0 0 154.65 526.75
  L 164.28 538.87
  A 1.50 1.33 85.4 0 0 164.55 539.13
  Q 171.32 543.79 173.83 545.35
  Q 177.27 547.50 188.34 551.42
  Q 192.77 552.99 198.63 553.66
  A 1.40 1.38 1.3 0 1 199.87 554.94
  L 200.93 568.76
  A 0.27 0.27 0.0 0 0 201.45 568.83
  Q 201.99 567.25 201.82 565.19
  L 201.69 584.17
  A 0.51 0.51 0.0 0 1 201.16 584.67
  Q 185.02 584.05 170.05 578.45
  Q 170.32 577.92 170.49 577.85
  A 0.53 0.53 0.0 0 0 170.49 576.86
  Q 167.30 575.63 164.67 573.24
  A 2.51 2.48 75.9 0 0 163.83 572.73
  Q 157.53 570.47 153.31 567.35
  Q 151.63 566.11 150.90 566.09
  A 0.15 0.10 55.3 0 1 150.82 566.06
  L 136.38 554.53
  A 2.06 1.94 -88.3 0 1 135.91 554.00
  L 131.89 547.33
  A 0.45 0.12 75.1 0 0 131.85 547.26
  Q 126.88 541.02 124.00 536.50
  Q 120.71 531.34 118.95 524.73
  Q 116.04 513.81 114.98 503.67
  A 0.36 0.36 0.0 0 0 114.61 503.35
  Q 114.35 503.36 114.21 503.56
  Q 113.30 490.39 114.32 484.04
  Q 116.20 472.37 118.11 464.82
  Q 119.14 460.74 122.44 455.19
  Q 128.50 444.98 134.62 436.61
  Q 135.64 435.21 136.96 433.96
  Q 144.81 426.51 152.51 421.25
  Q 165.01 414.75 177.15 410.56
  A 3.73 3.21 15.6 0 0 177.79 410.26
  Q 180.00 408.91 177.83 409.20
  Q 188.12 406.28 196.25 406.21
  Q 231.73 405.91 267.21 405.53
  Z"
/>
<path fill="#efebee" d="
  M 177.83 409.20
  Q 180.00 408.91 177.79 410.26
  A 3.73 3.21 15.6 0 1 177.15 410.56
  Q 165.01 414.75 152.51 421.25
  Q 164.37 412.88 177.83 409.20
  Z"
/>
<path fill="#b2b0b3" d="
  M 759.18 429.20
  Q 763.09 433.47 763.87 438.12
  Q 764.80 443.61 761.41 447.61
  Q 757.27 452.48 750.29 451.93
  A 0.78 0.43 -16.0 0 1 750.16 451.90
  L 745.67 450.55
  A 2.43 2.41 71.8 0 1 744.85 450.13
  Q 738.60 445.25 739.58 435.46
  A 13.04 13.04 0.0 0 1 748.30 427.40
  A 13.03 13.03 0.0 0 1 759.18 429.20
  Z"
/>
<path fill="#efebee" d="
  M 739.58 435.46
  Q 738.60 445.25 744.85 450.13
  A 2.43 2.41 71.8 0 0 745.67 450.55
  L 750.16 451.90
  A 0.78 0.43 -16.0 0 0 750.29 451.93
  Q 757.27 452.48 761.41 447.61
  Q 764.80 443.61 763.87 438.12
  Q 763.09 433.47 759.18 429.20
  A 13.06 13.04 21.9 0 1 764.67 442.08
  A 13.03 13.02 -7.6 0 1 757.22 451.81
  A 13.04 13.02 -41.4 0 1 744.96 451.04
  A 13.04 13.03 26.0 0 1 739.58 435.46
  Z"
/>
<path fill="#efebee" d="
  M 554.17 495.04
  Q 559.80 485.30 561.64 477.77
  Q 562.99 472.26 561.07 464.24
  A 0.55 0.55 0.0 0 0 560.72 463.85
  Q 560.61 463.80 560.57 463.79
  A 0.91 0.90 -73.6 0 1 560.09 462.90
  Q 560.34 460.39 558.67 457.87
  A 1.92 1.74 -75.8 0 1 558.50 457.55
  Q 555.36 449.99 550.82 445.92
  C 545.73 441.36 538.70 438.12 531.38 436.76
  Q 524.92 435.56 523.76 435.50
  Q 512.61 434.95 501.55 439.48
  Q 501.08 439.67 497.37 441.33
  Q 494.69 442.53 493.35 443.48
  Q 485.80 448.82 482.99 454.78
  C 480.42 460.23 478.72 465.70 478.40 471.35
  A 1.26 1.26 0.0 0 0 479.66 472.69
  L 498.23 472.69
  A 1.26 1.25 -88.0 0 0 499.48 471.52
  Q 499.93 464.75 503.96 459.52
  Q 511.36 449.90 523.40 451.71
  C 530.95 452.85 536.96 458.66 540.05 465.37
  C 542.08 469.77 541.73 473.74 540.82 478.47
  Q 540.28 481.28 538.40 484.21
  Q 534.87 489.73 529.91 493.93
  Q 529.30 494.44 528.72 494.81
  A 1.00 0.00 -32.9 0 0 527.89 495.35
  Q 524.56 498.46 518.53 502.70
  C 511.87 507.36 505.18 513.68 497.51 517.97
  A 3.20 2.10 0.4 0 0 497.14 518.21
  L 479.80 531.16
  A 3.63 3.63 0.0 0 0 478.34 534.07
  L 478.34 549.20
  A 1.12 1.11 2.2 0 0 479.37 550.31
  L 488.53 551.01
  L 478.50 550.98
  A 1.21 1.21 0.0 0 1 477.29 549.80
  Q 477.05 541.01 477.24 533.78
  Q 477.29 531.85 479.31 530.29
  Q 487.72 523.78 489.81 522.31
  Q 508.29 509.31 524.43 497.18
  Q 529.45 493.40 533.33 489.34
  C 539.46 482.91 543.13 472.76 538.59 464.44
  Q 531.94 452.26 519.25 452.78
  C 510.20 453.16 502.21 459.38 500.91 468.50
  Q 500.75 469.67 500.06 472.94
  A 1.16 1.16 0.0 0 1 498.92 473.87
  L 478.72 473.87
  A 1.32 1.32 0.0 0 1 477.40 472.52
  C 477.65 461.07 483.08 448.73 493.28 442.44
  Q 512.64 430.50 535.66 436.45
  Q 540.08 437.59 547.13 441.93
  C 557.84 448.53 564.65 463.93 562.89 476.20
  Q 561.44 486.28 554.17 495.04
  Z"
/>
<path fill="#b2b0b3" d="
  M 401.47 435.06
  Q 400.10 435.36 398.73 435.18
  L 401.47 435.06
  Z"
/>
<path fill="#efebee" d="
  M 410.05 454.90
  Q 409.50 454.81 409.05 454.92
  Q 400.68 454.27 395.61 455.83
  C 380.98 460.35 372.99 470.65 370.93 485.48
  Q 370.25 490.33 370.12 491.74
  Q 369.01 503.42 374.34 514.15
  C 384.73 535.08 415.91 539.67 432.82 523.87
  Q 438.34 518.72 440.02 511.37
  A 0.61 0.60 -80.4 0 0 439.51 510.64
  L 437.06 510.31
  L 424.78 510.35
  L 412.96 510.61
  L 410.54 510.58
  L 407.44 510.38
  A 0.50 0.49 2.5 0 1 406.98 509.89
  L 406.98 493.44
  A 0.79 0.79 0.0 0 1 407.77 492.65
  L 463.65 492.65
  A 0.71 0.71 0.0 0 1 464.36 493.36
  Q 464.35 503.01 464.25 508.74
  C 464.15 514.23 461.43 521.57 458.17 526.70
  Q 446.07 545.78 423.73 551.58
  A 6.23 5.97 35.6 0 1 422.34 551.78
  Q 418.53 551.88 414.51 552.76
  Q 412.33 553.23 404.30 553.16
  Q 403.78 552.78 403.17 553.13
  C 383.24 552.70 364.09 543.60 354.39 525.76
  Q 352.88 522.98 350.24 515.54
  Q 348.41 510.37 347.81 504.87
  Q 345.47 483.34 352.53 465.91
  Q 357.53 453.55 369.39 445.13
  Q 381.43 436.60 398.73 435.18
  Q 400.10 435.36 401.47 435.06
  Q 413.39 434.48 422.02 435.93
  Q 430.76 437.41 439.92 442.71
  C 451.32 449.29 458.99 460.37 462.59 472.73
  A 0.88 0.87 -8.2 0 1 461.75 473.85
  L 438.98 473.85
  A 1.84 1.84 0.0 0 1 437.28 472.71
  Q 429.94 454.98 410.05 454.90
  Z
  M 407.63 508.04
  A 1.22 1.22 0.0 0 0 408.84 509.39
  L 439.33 509.39
  A 1.82 1.82 0.0 0 1 441.09 511.69
  Q 439.16 518.79 433.68 524.23
  Q 432.23 525.66 429.15 528.14
  Q 426.27 530.46 424.14 531.44
  Q 419.93 533.38 414.44 533.58
  A 4.56 4.34 35.1 0 0 413.50 533.72
  Q 408.34 535.05 407.00 534.93
  C 396.99 534.07 385.67 529.60 378.34 522.25
  C 375.43 519.33 374.04 515.97 371.99 511.80
  Q 369.15 506.02 369.05 499.74
  Q 369.04 499.36 368.64 499.06
  A 0.49 0.48 17.5 0 1 368.44 498.69
  L 368.18 494.46
  A 4.29 4.26 -37.1 0 1 368.43 492.71
  Q 369.08 491.48 369.53 486.78
  Q 369.85 483.47 371.78 477.75
  Q 373.58 472.41 375.65 469.32
  Q 382.20 459.56 393.36 455.39
  Q 397.06 454.01 402.19 453.60
  C 418.11 452.34 431.26 456.74 437.80 471.79
  A 1.94 1.93 -12.0 0 0 439.59 472.95
  L 459.38 472.76
  A 0.64 0.48 26.6 0 0 459.60 472.72
  L 460.92 472.24
  A 0.56 0.56 0.0 0 0 461.23 471.48
  L 456.63 461.29
  A 3.99 3.91 12.9 0 0 456.04 460.37
  Q 454.64 458.76 453.33 455.87
  A 4.79 4.27 -78.6 0 0 452.85 455.05
  Q 449.58 450.59 442.94 445.89
  Q 438.55 442.79 435.75 442.38
  A 1.99 1.90 60.3 0 1 435.21 442.22
  L 424.17 437.49
  A 2.39 2.35 61.4 0 0 423.61 437.32
  Q 415.69 435.98 406.34 436.14
  C 398.93 436.27 396.58 436.00 390.11 437.81
  Q 380.79 440.42 374.21 443.72
  Q 364.52 448.59 357.53 458.30
  Q 353.46 463.96 352.30 469.16
  A 4.76 4.38 -28.6 0 1 352.02 469.98
  Q 350.68 472.91 350.46 475.27
  Q 350.31 476.83 349.60 477.60
  A 1.04 1.03 -31.1 0 0 349.36 478.54
  Q 349.44 478.86 348.95 483.81
  Q 348.25 490.83 348.44 498.13
  Q 348.60 504.77 349.84 510.29
  Q 351.27 516.68 353.60 521.92
  Q 360.97 538.57 377.35 545.93
  Q 384.38 549.09 388.17 550.10
  Q 400.04 553.26 409.53 552.27
  Q 413.84 551.82 418.88 551.20
  Q 424.54 550.51 428.06 549.32
  Q 447.18 542.83 457.76 525.81
  C 459.83 522.49 461.95 517.38 462.20 514.23
  Q 462.44 511.23 462.71 509.87
  Q 463.08 508.00 462.98 505.49
  Q 462.96 504.88 463.18 496.15
  A 1.56 1.55 6.6 0 0 461.93 494.58
  Q 457.75 493.73 453.49 493.86
  Q 431.96 494.51 409.60 493.63
  Q 406.93 493.53 407.41 495.90
  Q 408.34 500.51 408.35 501.36
  A 0.58 0.21 -64.9 0 1 408.34 501.47
  L 407.63 508.04
  Z"
/>
<path fill="#b2b0b3" d="
  M 554.17 495.04
  Q 550.71 500.54 544.61 504.61
  C 532.24 512.85 520.75 522.39 508.51 530.79
  Q 508.18 531.02 508.25 531.66
  Q 508.30 532.05 508.70 532.06
  Q 529.07 532.21 549.21 532.10
  Q 548.34 532.08 548.22 532.67
  A 0.39 0.38 -84.4 0 0 548.59 533.13
  L 559.23 533.13
  A 1.35 1.35 0.0 0 1 560.58 534.51
  L 560.39 545.36
  A 0.56 0.52 -54.4 0 0 560.42 545.59
  Q 561.03 547.39 561.27 549.05
  A 1.10 1.10 0.0 0 1 560.26 550.30
  C 558.12 550.47 554.54 549.61 552.94 551.27
  L 488.53 551.01
  L 479.37 550.31
  A 1.12 1.11 2.2 0 1 478.34 549.20
  L 478.34 534.07
  A 3.63 3.63 0.0 0 1 479.80 531.16
  L 497.14 518.21
  A 3.20 2.10 0.4 0 1 497.51 517.97
  C 505.18 513.68 511.87 507.36 518.53 502.70
  Q 524.56 498.46 527.89 495.35
  A 1.00 0.00 -32.9 0 1 528.72 494.81
  Q 529.30 494.44 529.91 493.93
  Q 534.87 489.73 538.40 484.21
  Q 540.28 481.28 540.82 478.47
  C 541.73 473.74 542.08 469.77 540.05 465.37
  C 536.96 458.66 530.95 452.85 523.40 451.71
  Q 511.36 449.90 503.96 459.52
  Q 499.93 464.75 499.48 471.52
  A 1.26 1.25 -88.0 0 1 498.23 472.69
  L 479.66 472.69
  A 1.26 1.26 0.0 0 1 478.40 471.35
  C 478.72 465.70 480.42 460.23 482.99 454.78
  Q 485.80 448.82 493.35 443.48
  Q 494.69 442.53 497.37 441.33
  Q 501.08 439.67 501.55 439.48
  Q 512.61 434.95 523.76 435.50
  Q 524.92 435.56 531.38 436.76
  C 538.70 438.12 545.73 441.36 550.82 445.92
  Q 555.36 449.99 558.50 457.55
  A 1.92 1.74 -75.8 0 0 558.67 457.87
  Q 560.34 460.39 560.09 462.90
  A 0.91 0.90 -73.6 0 0 560.57 463.79
  Q 560.61 463.80 560.72 463.85
  A 0.55 0.55 0.0 0 1 561.07 464.24
  Q 562.99 472.26 561.64 477.77
  Q 559.80 485.30 554.17 495.04
  Z"
/>
<path fill="#b2b0b3" d="
  M 407.63 508.04
  L 408.34 501.47
  A 0.58 0.21 -64.9 0 0 408.35 501.36
  Q 408.34 500.51 407.41 495.90
  Q 406.93 493.53 409.60 493.63
  Q 431.96 494.51 453.49 493.86
  Q 457.75 493.73 461.93 494.58
  A 1.56 1.55 6.6 0 1 463.18 496.15
  Q 462.96 504.88 462.98 505.49
  Q 463.08 508.00 462.71 509.87
  Q 462.44 511.23 462.20 514.23
  C 461.95 517.38 459.83 522.49 457.76 525.81
  Q 447.18 542.83 428.06 549.32
  Q 424.54 550.51 418.88 551.20
  Q 413.84 551.82 409.53 552.27
  Q 400.04 553.26 388.17 550.10
  Q 384.38 549.09 377.35 545.93
  Q 360.97 538.57 353.60 521.92
  Q 351.27 516.68 349.84 510.29
  Q 348.60 504.77 348.44 498.13
  Q 348.25 490.83 348.95 483.81
  Q 349.44 478.86 349.36 478.54
  A 1.04 1.03 -31.1 0 1 349.60 477.60
  Q 350.31 476.83 350.46 475.27
  Q 350.68 472.91 352.02 469.98
  A 4.76 4.38 -28.6 0 0 352.30 469.16
  Q 353.46 463.96 357.53 458.30
  Q 364.52 448.59 374.21 443.72
  Q 380.79 440.42 390.11 437.81
  C 396.58 436.00 398.93 436.27 406.34 436.14
  Q 415.69 435.98 423.61 437.32
  A 2.39 2.35 61.4 0 1 424.17 437.49
  L 435.21 442.22
  A 1.99 1.90 60.3 0 0 435.75 442.38
  Q 438.55 442.79 442.94 445.89
  Q 449.58 450.59 452.85 455.05
  A 4.79 4.27 -78.6 0 1 453.33 455.87
  Q 454.64 458.76 456.04 460.37
  A 3.99 3.91 12.9 0 1 456.63 461.29
  L 461.23 471.48
  A 0.56 0.56 0.0 0 1 460.92 472.24
  L 459.60 472.72
  A 0.64 0.48 26.6 0 1 459.38 472.76
  L 439.59 472.95
  A 1.94 1.93 -12.0 0 1 437.80 471.79
  C 431.26 456.74 418.11 452.34 402.19 453.60
  Q 397.06 454.01 393.36 455.39
  Q 382.20 459.56 375.65 469.32
  Q 373.58 472.41 371.78 477.75
  Q 369.85 483.47 369.53 486.78
  Q 369.08 491.48 368.43 492.71
  A 4.29 4.26 -37.1 0 0 368.18 494.46
  L 368.44 498.69
  A 0.49 0.48 17.5 0 0 368.64 499.06
  Q 369.04 499.36 369.05 499.74
  Q 369.15 506.02 371.99 511.80
  C 374.04 515.97 375.43 519.33 378.34 522.25
  C 385.67 529.60 396.99 534.07 407.00 534.93
  Q 408.34 535.05 413.50 533.72
  A 4.56 4.34 35.1 0 1 414.44 533.58
  Q 419.93 533.38 424.14 531.44
  Q 426.27 530.46 429.15 528.14
  Q 432.23 525.66 433.68 524.23
  Q 439.16 518.79 441.09 511.69
  A 1.82 1.82 0.0 0 0 439.33 509.39
  L 408.84 509.39
  A 1.22 1.22 0.0 0 1 407.63 508.04
  Z"
/>
<path fill="#efebee" d="
  M 197.32 438.44
  Q 188.38 439.67 181.07 443.09
  Q 165.07 450.57 156.54 464.80
  C 147.55 479.79 144.22 496.47 150.19 513.65
  C 153.96 524.49 162.92 536.82 172.67 543.14
  Q 185.45 551.42 200.68 551.97
  A 1.27 1.27 0.0 0 1 201.91 553.24
  L 201.82 565.19
  Q 201.99 567.25 201.45 568.83
  A 0.27 0.27 0.0 0 1 200.93 568.76
  L 199.87 554.94
  A 1.40 1.38 1.3 0 0 198.63 553.66
  Q 192.77 552.99 188.34 551.42
  Q 177.27 547.50 173.83 545.35
  Q 171.32 543.79 164.55 539.13
  A 1.50 1.33 85.4 0 1 164.28 538.87
  L 154.65 526.75
  A 7.61 7.45 -76.0 0 1 153.57 524.91
  Q 148.89 513.31 148.41 511.32
  Q 147.10 505.89 146.01 502.85
  Q 145.05 500.16 145.52 498.57
  Q 145.91 497.24 145.87 493.75
  Q 145.86 492.08 146.46 488.94
  Q 148.55 478.15 153.78 467.83
  Q 158.32 458.89 164.86 452.91
  Q 172.00 446.39 180.24 442.28
  Q 188.55 438.13 197.32 438.44
  Z"
/>
<path fill="#b2b0b3" d="
  M 812.30 468.08
  L 812.14 468.54
  A 0.50 0.50 0.0 0 0 812.62 469.20
  L 826.78 469.20
  A 1.62 1.62 0.0 0 1 828.40 470.82
  L 828.40 483.15
  A 1.54 1.54 0.0 0 1 826.86 484.69
  L 812.29 484.69
  A 2.11 2.10 -88.3 0 0 810.19 486.67
  Q 809.98 490.11 810.32 495.00
  Q 810.53 498.08 810.25 503.01
  C 810.03 506.77 810.61 510.54 810.29 513.97
  C 809.98 517.39 810.22 519.51 810.10 523.08
  Q 809.94 527.54 811.23 529.75
  C 814.74 535.82 822.33 535.33 828.31 535.08
  A 1.20 1.20 0.0 0 1 829.56 536.28
  L 829.56 548.63
  A 1.40 1.40 0.0 0 1 828.22 550.03
  L 812.64 550.67
  A 2.94 2.80 -35.1 0 1 811.58 550.51
  Q 810.82 550.28 808.85 550.13
  Q 808.79 550.13 807.23 549.45
  Q 806.51 549.14 805.53 548.89
  Q 795.90 546.48 791.96 537.55
  Q 790.50 534.23 790.65 526.79
  Q 791.03 508.10 791.17 503.75
  Q 791.28 500.46 789.30 490.27
  L 788.90 486.81
  A 1.15 1.15 0.0 0 0 787.76 485.80
  L 773.87 485.80
  A 0.77 0.76 89.6 0 1 773.11 485.04
  L 773.05 470.04
  Q 775.78 469.72 776.51 469.73
  Q 781.60 469.79 784.24 468.33
  Q 790.78 467.74 790.23 460.74
  Q 789.56 452.09 789.64 446.29
  A 1.05 1.04 -89.4 0 1 790.68 445.26
  L 810.45 445.26
  A 0.78 0.78 0.0 0 1 811.23 446.04
  L 811.23 467.56
  A 0.47 0.47 0.0 0 0 811.66 468.03
  L 812.30 468.08
  Z"
/>
<path fill="#b2b0b3" d="
  M 410.05 454.90
  Q 409.49 454.83 409.05 454.92
  Q 409.50 454.81 410.05 454.90
  Z"
/>
<path fill="#efebee" d="
  M 625.80 545.58
  Q 626.88 545.39 627.10 546.60
  Q 627.33 547.87 628.60 549.28
  A 1.52 1.51 -21.3 0 0 629.75 549.78
  L 639.98 549.65
  A 0.61 0.51 49.7 0 1 640.16 549.68
  Q 641.98 550.36 644.08 550.02
  A 1.83 1.83 0.0 0 0 645.61 548.16
  C 645.43 541.58 646.09 533.69 645.96 525.92
  Q 645.60 504.66 645.71 498.50
  Q 645.73 496.87 645.39 493.91
  A 1.93 1.90 23.5 0 0 645.01 492.97
  Q 643.89 491.51 644.16 489.40
  A 1.36 1.33 -56.4 0 0 644.00 488.56
  L 643.45 487.57
  A 1.04 1.02 -59.2 0 1 643.32 487.03
  Q 643.32 485.05 642.45 484.24
  A 1.20 1.16 -67.1 0 1 642.08 483.29
  Q 642.17 481.81 641.39 481.40
  A 1.63 1.62 88.4 0 1 640.77 480.81
  Q 636.87 474.55 634.15 472.99
  Q 628.12 469.53 624.91 468.54
  Q 622.65 467.85 614.51 466.90
  Q 608.76 466.23 604.01 467.06
  Q 594.82 468.67 589.64 471.47
  Q 581.95 475.62 577.99 482.83
  Q 575.63 487.13 575.38 493.07
  A 1.05 1.05 0.0 0 0 576.43 494.17
  L 592.25 494.17
  A 1.20 1.20 0.0 0 0 593.43 493.20
  Q 594.96 485.53 602.92 481.97
  C 605.95 480.61 610.31 480.62 613.05 480.96
  Q 618.06 481.57 623.08 485.80
  A 3.60 3.51 -85.2 0 1 623.83 486.71
  Q 626.27 491.02 627.38 496.23
  A 1.26 1.20 43.7 0 1 627.40 496.67
  L 627.03 499.64
  A 2.01 2.00 -88.6 0 1 625.21 501.38
  L 593.94 503.77
  A 1.86 1.67 29.7 0 0 593.48 503.87
  L 584.78 507.01
  A 4.39 4.19 -70.3 0 0 583.96 507.42
  Q 571.77 515.39 572.90 530.98
  Q 573.59 540.50 581.17 546.63
  Q 584.02 548.92 590.34 551.52
  A 6.92 6.86 59.9 0 0 592.08 551.99
  Q 602.42 553.43 612.26 549.45
  Q 617.73 547.24 622.83 542.86
  Q 614.77 552.04 601.75 553.21
  Q 592.14 554.08 584.63 550.04
  C 574.81 544.76 570.32 534.38 572.18 523.43
  C 574.46 510.03 585.49 503.15 598.26 502.12
  Q 607.03 501.42 615.75 501.07
  Q 620.61 500.88 624.94 499.74
  A 1.11 1.09 83.7 0 0 625.75 498.71
  C 626.16 486.34 617.65 480.87 606.07 482.58
  C 599.33 483.58 595.11 487.66 594.11 494.61
  A 0.75 0.74 4.0 0 1 593.37 495.25
  L 574.68 495.25
  A 0.64 0.64 0.0 0 1 574.04 494.55
  Q 575.49 476.61 591.44 469.19
  Q 592.78 468.57 598.79 466.94
  C 604.67 465.35 610.83 465.78 617.25 466.03
  Q 622.78 466.25 628.06 468.23
  Q 636.09 471.23 641.10 477.91
  C 645.94 484.36 646.84 496.24 646.88 504.24
  C 646.97 521.96 647.40 535.17 646.04 550.05
  A 1.02 1.00 -87.2 0 1 645.04 550.97
  L 628.06 550.97
  A 0.87 0.86 -8.0 0 1 627.23 550.35
  L 625.80 545.58
  Z"
/>
<path fill="#b2b0b3" d="
  M 625.80 545.58
  L 624.69 542.26
  A 0.55 0.54 -20.3 0 0 623.96 541.93
  Q 623.43 542.15 622.83 542.86
  Q 617.73 547.24 612.26 549.45
  Q 602.42 553.43 592.08 551.99
  A 6.92 6.86 59.9 0 1 590.34 551.52
  Q 584.02 548.92 581.17 546.63
  Q 573.59 540.50 572.90 530.98
  Q 571.77 515.39 583.96 507.42
  A 4.39 4.19 -70.3 0 1 584.78 507.01
  L 593.48 503.87
  A 1.86 1.67 29.7 0 1 593.94 503.77
  L 625.21 501.38
  A 2.01 2.00 -88.6 0 0 627.03 499.64
  L 627.40 496.67
  A 1.26 1.20 43.7 0 0 627.38 496.23
  Q 626.27 491.02 623.83 486.71
  A 3.60 3.51 -85.2 0 0 623.08 485.80
  Q 618.06 481.57 613.05 480.96
  C 610.31 480.62 605.95 480.61 602.92 481.97
  Q 594.96 485.53 593.43 493.20
  A 1.20 1.20 0.0 0 1 592.25 494.17
  L 576.43 494.17
  A 1.05 1.05 0.0 0 1 575.38 493.07
  Q 575.63 487.13 577.99 482.83
  Q 581.95 475.62 589.64 471.47
  Q 594.82 468.67 604.01 467.06
  Q 608.76 466.23 614.51 466.90
  Q 622.65 467.85 624.91 468.54
  Q 628.12 469.53 634.15 472.99
  Q 636.87 474.55 640.77 480.81
  A 1.63 1.62 88.4 0 0 641.39 481.40
  Q 642.17 481.81 642.08 483.29
  A 1.20 1.16 -67.1 0 0 642.45 484.24
  Q 643.32 485.05 643.32 487.03
  A 1.04 1.02 -59.2 0 0 643.45 487.57
  L 644.00 488.56
  A 1.36 1.33 -56.4 0 1 644.16 489.40
  Q 643.89 491.51 645.01 492.97
  A 1.93 1.90 23.5 0 1 645.39 493.91
  Q 645.73 496.87 645.71 498.50
  Q 645.60 504.66 645.96 525.92
  C 646.09 533.69 645.43 541.58 645.61 548.16
  A 1.83 1.83 0.0 0 1 644.08 550.02
  Q 641.98 550.36 640.16 549.68
  A 0.61 0.51 49.7 0 0 639.98 549.65
  L 629.75 549.78
  A 1.52 1.51 -21.3 0 1 628.60 549.28
  Q 627.33 547.87 627.10 546.60
  Q 626.88 545.39 625.80 545.58
  Z
  M 625.13 522.07
  Q 625.06 518.62 624.98 515.25
  Q 624.96 514.34 624.10 513.66
  Q 624.16 512.68 623.25 512.75
  Q 612.92 513.59 606.23 513.82
  Q 600.32 514.03 596.33 517.86
  Q 592.67 521.35 592.74 525.32
  C 592.81 529.90 594.91 533.37 598.89 535.61
  Q 601.68 537.18 602.53 537.25
  Q 606.13 537.53 608.15 537.83
  A 3.16 3.05 42.9 0 0 609.20 537.81
  Q 620.62 535.78 625.42 524.97
  A 2.73 2.67 61.4 0 0 625.65 524.15
  Q 625.93 521.87 626.38 519.28
  Q 626.62 517.90 625.85 517.31
  A 0.29 0.29 0.0 0 0 625.38 517.53
  L 625.13 522.07
  Z"
/>
<path fill="#efebee" d="
  M 688.38 516.53
  Q 686.64 514.42 685.82 512.00
  Q 684.64 508.50 684.62 508.46
  Q 682.16 502.39 681.31 497.79
  A 3.15 3.09 26.0 0 0 680.98 496.86
  Q 679.32 493.69 678.02 488.04
  Q 677.85 487.33 676.85 485.37
  A 9.62 9.60 24.4 0 1 676.07 483.30
  Q 674.58 477.15 671.58 470.68
  Q 670.51 468.39 668.01 468.42
  Q 653.95 468.59 652.77 468.28
  C 650.58 467.70 649.87 469.43 650.65 471.36
  Q 658.13 489.83 659.47 492.73
  Q 660.53 495.02 659.79 495.89
  L 648.60 468.58
  A 0.92 0.92 0.0 0 1 649.45 467.32
  L 670.21 467.32
  A 1.62 1.61 -12.2 0 1 671.68 468.26
  Q 673.21 471.52 674.14 474.11
  Q 681.61 494.82 688.38 516.53
  Z"
/>
<path fill="#b2b0b3" d="
  M 732.32 474.53
  Q 729.26 480.18 724.99 492.44
  Q 723.83 495.75 715.97 513.11
  Q 714.97 515.31 714.62 516.42
  C 713.68 519.35 712.34 521.70 711.30 524.72
  Q 708.14 533.86 702.55 548.19
  A 2.30 2.29 10.6 0 1 700.41 549.65
  L 683.54 549.65
  A 2.81 2.81 0.0 0 1 680.80 547.45
  Q 679.73 542.62 676.64 538.21
  L 659.79 495.89
  Q 660.53 495.02 659.47 492.73
  Q 658.13 489.83 650.65 471.36
  C 649.87 469.43 650.58 467.70 652.77 468.28
  Q 653.95 468.59 668.01 468.42
  Q 670.51 468.39 671.58 470.68
  Q 674.58 477.15 676.07 483.30
  A 9.62 9.60 24.4 0 0 676.85 485.37
  Q 677.85 487.33 678.02 488.04
  Q 679.32 493.69 680.98 496.86
  A 3.15 3.09 26.0 0 1 681.31 497.79
  Q 682.16 502.39 684.62 508.46
  Q 684.64 508.50 685.82 512.00
  Q 686.64 514.42 688.38 516.53
  L 691.71 524.71
  A 0.71 0.71 0.0 0 0 693.03 524.68
  L 696.34 515.37
  Q 700.76 506.42 703.25 496.71
  A 4.56 4.15 -27.1 0 1 703.60 495.78
  Q 704.83 493.39 705.50 490.94
  Q 705.98 489.21 707.47 485.60
  Q 710.10 479.23 711.96 472.47
  Q 712.54 470.34 715.26 467.91
  L 734.51 467.79
  A 0.41 0.41 0.0 0 1 734.92 468.28
  Q 734.26 471.86 732.32 474.53
  Z"
/>
<path fill="#b2b0b3" d="
  M 754.13 467.94
  L 761.39 468.80
  A 0.98 0.98 0.0 0 1 762.14 469.34
  Q 762.59 470.24 763.27 470.74
  L 763.20 485.68
  Q 762.49 496.24 762.60 506.80
  Q 762.77 524.08 762.66 527.71
  Q 762.36 537.38 762.69 548.62
  A 1.44 1.43 -1.0 0 1 761.25 550.10
  L 744.75 550.10
  A 1.44 1.44 0.0 0 1 743.31 548.65
  Q 743.47 526.26 743.61 521.42
  C 744.01 507.46 743.56 495.96 743.48 480.75
  Q 743.47 478.87 742.22 478.26
  L 742.10 468.64
  A 0.54 0.53 -1.1 0 1 742.63 468.10
  L 754.13 467.94
  Z"
/>
<path fill="#efebee" d="
  M 763.27 470.74
  Q 762.59 470.24 762.14 469.34
  A 0.98 0.98 0.0 0 0 761.39 468.80
  L 754.13 467.94
  L 762.61 467.87
  A 0.66 0.65 -6.7 0 1 763.25 468.37
  Q 763.50 469.47 763.27 470.74
  Z"
/>
<path fill="#efebee" d="
  M 715.26 467.91
  Q 712.54 470.34 711.96 472.47
  Q 710.10 479.23 707.47 485.60
  Q 705.98 489.21 705.50 490.94
  Q 704.83 493.39 703.60 495.78
  A 4.56 4.15 -27.1 0 0 703.25 496.71
  Q 700.76 506.42 696.34 515.37
  Q 698.01 509.25 700.19 503.47
  Q 705.82 488.60 710.81 473.51
  C 711.77 470.63 712.07 467.69 715.26 467.91
  Z"
/>
<path fill="#efebee" d="
  M 816.97 485.86
  L 812.46 485.84
  Q 811.55 485.85 811.14 486.61
  A 0.57 0.53 63.0 0 0 811.06 486.90
  L 811.13 504.46
  L 811.11 508.23
  Q 811.32 516.59 811.36 525.01
  Q 811.41 533.40 819.79 533.96
  Q 824.97 534.30 829.05 534.11
  A 1.16 1.15 87.5 0 1 830.25 535.22
  L 830.76 549.42
  A 1.31 1.31 0.0 0 1 829.68 550.77
  Q 820.79 552.35 811.77 551.47
  Q 799.72 550.29 792.75 541.09
  Q 791.28 539.14 790.43 535.14
  C 789.36 530.13 789.19 524.62 789.28 518.60
  Q 789.47 504.45 789.30 490.27
  Q 791.28 500.46 791.17 503.75
  Q 791.03 508.10 790.65 526.79
  Q 790.50 534.23 791.96 537.55
  Q 795.90 546.48 805.53 548.89
  Q 806.51 549.14 807.23 549.45
  Q 808.79 550.13 808.85 550.13
  Q 810.82 550.28 811.58 550.51
  A 2.94 2.80 -35.1 0 0 812.64 550.67
  L 828.22 550.03
  A 1.40 1.40 0.0 0 0 829.56 548.63
  L 829.56 536.28
  A 1.20 1.20 0.0 0 0 828.31 535.08
  C 822.33 535.33 814.74 535.82 811.23 529.75
  Q 809.94 527.54 810.10 523.08
  C 810.22 519.51 809.98 517.39 810.29 513.97
  C 810.61 510.54 810.03 506.77 810.25 503.01
  Q 810.53 498.08 810.32 495.00
  Q 809.98 490.11 810.19 486.67
  A 2.11 2.10 -88.3 0 1 812.29 484.69
  L 826.86 484.69
  A 1.54 1.54 0.0 0 0 828.40 483.15
  L 828.40 470.82
  A 1.62 1.62 0.0 0 0 826.78 469.20
  L 812.62 469.20
  A 0.50 0.50 0.0 0 1 812.14 468.54
  L 812.30 468.08
  L 828.08 468.07
  A 1.20 1.20 0.0 0 1 829.28 469.23
  L 829.83 484.21
  A 1.44 1.43 88.6 0 1 828.42 485.70
  L 816.97 485.86
  Z"
/>
<path fill="#efebee" d="
  M 878.16 519.15
  L 868.71 492.59
  A 2.29 2.13 -69.5 0 0 868.59 492.30
  L 866.71 488.54
  A 3.71 3.68 26.3 0 1 866.44 487.75
  Q 865.97 485.44 864.75 483.55
  A 3.65 3.56 -70.8 0 1 864.37 482.74
  Q 862.77 477.52 860.52 473.12
  Q 859.92 471.96 859.92 471.43
  Q 859.90 470.37 858.38 469.54
  A 0.80 0.75 57.9 0 0 858.11 469.47
  L 840.30 469.41
  A 1.51 1.51 0.0 0 0 838.94 471.58
  Q 841.36 476.51 843.74 482.49
  Q 845.53 486.97 848.00 492.85
  Q 853.51 505.91 858.60 519.62
  Q 859.75 522.70 860.48 524.34
  Q 861.96 527.65 862.37 529.02
  Q 865.17 538.31 869.19 546.94
  A 6.03 6.01 42.6 0 1 869.39 551.58
  C 867.04 557.92 865.05 562.01 863.25 567.72
  Q 860.43 576.65 857.25 582.87
  A 2.29 2.18 -8.0 0 1 856.71 583.55
  Q 856.51 583.72 856.50 583.80
  A 1.14 0.88 3.4 0 0 857.68 584.83
  Q 862.14 584.83 874.15 584.68
  A 1.81 1.79 -73.3 0 0 875.63 583.87
  Q 877.11 581.64 877.87 579.37
  C 880.70 570.85 884.00 566.33 886.30 558.96
  Q 887.84 554.02 892.15 544.28
  C 897.01 533.29 900.62 522.72 905.08 512.31
  Q 908.51 504.29 912.40 495.52
  Q 913.27 493.57 916.02 485.94
  Q 917.97 480.50 920.00 476.48
  Q 921.39 473.73 922.33 470.28
  A 0.92 0.91 7.5 0 0 921.44 469.13
  L 903.79 469.13
  A 3.09 3.07 10.3 0 0 900.90 471.12
  C 898.64 477.08 896.89 483.53 893.98 490.39
  Q 892.12 494.77 890.75 499.26
  Q 888.90 505.27 886.06 510.05
  L 900.60 469.90
  A 2.68 2.68 0.0 0 1 903.12 468.13
  L 923.08 468.13
  A 0.87 0.87 0.0 0 1 923.89 469.33
  L 876.73 584.39
  A 2.20 2.19 -78.8 0 1 874.70 585.75
  L 855.75 585.75
  A 0.70 0.70 0.0 0 1 855.14 584.71
  Q 858.20 579.21 860.12 574.10
  Q 864.47 562.54 868.73 551.67
  A 5.59 5.57 -45.2 0 0 868.72 547.58
  L 837.46 468.88
  A 0.55 0.55 0.0 0 1 837.97 468.13
  L 859.69 468.13
  A 0.78 0.78 0.0 0 1 860.42 468.64
  Q 864.38 479.38 869.26 491.25
  Q 873.18 500.80 878.16 519.15
  Z"
/>
<path fill="#efebee" d="
  M 784.24 468.33
  Q 781.60 469.79 776.51 469.73
  Q 775.78 469.72 773.05 470.04
  L 773.11 468.90
  A 0.65 0.65 0.0 0 1 773.77 468.28
  L 784.24 468.33
  Z"
/>
<path fill="#b2b0b3" d="
  M 878.16 519.15
  Q 879.30 519.24 879.37 521.93
  A 0.66 0.66 0.0 0 0 880.50 522.38
  Q 881.21 521.68 881.65 520.46
  Q 883.62 514.96 886.06 510.05
  Q 888.90 505.27 890.75 499.26
  Q 892.12 494.77 893.98 490.39
  C 896.89 483.53 898.64 477.08 900.90 471.12
  A 3.09 3.07 10.3 0 1 903.79 469.13
  L 921.44 469.13
  A 0.92 0.91 7.5 0 1 922.33 470.28
  Q 921.39 473.73 920.00 476.48
  Q 917.97 480.50 916.02 485.94
  Q 913.27 493.57 912.40 495.52
  Q 908.51 504.29 905.08 512.31
  C 900.62 522.72 897.01 533.29 892.15 544.28
  Q 887.84 554.02 886.30 558.96
  C 884.00 566.33 880.70 570.85 877.87 579.37
  Q 877.11 581.64 875.63 583.87
  A 1.81 1.79 -73.3 0 1 874.15 584.68
  Q 862.14 584.83 857.68 584.83
  A 1.14 0.88 3.4 0 1 856.50 583.80
  Q 856.51 583.72 856.71 583.55
  A 2.29 2.18 -8.0 0 0 857.25 582.87
  Q 860.43 576.65 863.25 567.72
  C 865.05 562.01 867.04 557.92 869.39 551.58
  A 6.03 6.01 42.6 0 0 869.19 546.94
  Q 865.17 538.31 862.37 529.02
  Q 861.96 527.65 860.48 524.34
  Q 859.75 522.70 858.60 519.62
  Q 853.51 505.91 848.00 492.85
  Q 845.53 486.97 843.74 482.49
  Q 841.36 476.51 838.94 471.58
  A 1.51 1.51 0.0 0 1 840.30 469.41
  L 858.11 469.47
  A 0.80 0.75 57.9 0 1 858.38 469.54
  Q 859.90 470.37 859.92 471.43
  Q 859.92 471.96 860.52 473.12
  Q 862.77 477.52 864.37 482.74
  A 3.65 3.56 -70.8 0 0 864.75 483.55
  Q 865.97 485.44 866.44 487.75
  A 3.71 3.68 26.3 0 0 866.71 488.54
  L 868.59 492.30
  A 2.29 2.13 -69.5 0 1 868.71 492.59
  L 878.16 519.15
  Z"
/>
<path fill="#efebee" d="
  M 260.27 550.21
  Q 259.89 550.23 259.76 550.01
  Q 259.47 549.52 259.92 549.17
  Q 265.81 544.50 271.71 539.45
  Q 283.18 529.62 286.11 514.50
  Q 286.55 512.18 286.11 509.46
  Q 285.77 507.41 286.02 504.33
  A 5.81 5.66 44.2 0 0 285.99 503.21
  Q 285.59 500.13 285.20 498.28
  Q 284.36 494.29 280.69 487.06
  Q 277.59 480.95 270.70 476.69
  Q 268.41 475.28 263.17 473.85
  Q 260.25 473.06 255.49 471.24
  A 7.81 7.71 54.7 0 0 252.62 470.73
  Q 229.03 471.01 204.65 470.79
  C 201.20 470.76 198.07 471.15 195.51 473.03
  Q 191.03 476.30 189.02 477.17
  A 2.49 2.45 -76.5 0 0 188.38 477.57
  Q 184.92 480.47 181.97 486.50
  C 181.40 487.66 181.76 488.68 181.45 489.55
  Q 179.94 493.71 180.47 499.59
  A 0.54 0.53 -2.3 0 0 181.01 500.08
  L 187.90 500.08
  A 0.54 0.54 0.0 0 1 188.44 500.59
  L 188.46 501.00
  L 182.21 500.91
  Q 181.64 500.48 180.71 500.81
  Q 180.03 500.84 179.63 500.38
  Q 179.29 500.00 179.33 499.28
  Q 179.71 493.19 180.24 489.05
  A 8.78 8.51 -31.8 0 1 180.73 487.10
  Q 185.37 474.97 198.15 470.17
  Q 199.72 469.58 207.50 469.50
  Q 219.05 469.40 250.75 469.44
  C 258.57 469.45 264.78 471.82 271.32 475.94
  C 285.07 484.60 290.93 503.62 286.15 519.20
  Q 282.15 532.22 271.28 540.97
  C 267.55 543.98 263.90 547.08 260.27 550.21
  Z"
/>
<path fill="#b2b0b3" d="
  M 260.27 550.21
  Q 259.87 550.74 259.80 551.08
  A 0.40 0.40 0.0 0 0 260.19 551.56
  L 269.46 551.64
  Q 268.99 551.75 269.17 552.09
  Q 269.57 552.85 270.56 552.84
  Q 281.23 552.79 287.32 552.58
  A 1.02 1.01 -88.0 0 1 288.37 553.71
  Q 287.68 559.84 287.96 566.76
  Q 288.37 576.90 288.61 582.55
  A 1.13 1.13 0.0 0 1 287.36 583.72
  Q 282.39 583.17 277.57 583.32
  Q 276.36 583.36 276.79 584.71
  L 214.63 584.96
  Q 218.19 584.75 220.37 584.80
  Q 220.58 584.80 220.67 584.72
  Q 220.96 584.49 220.83 584.14
  A 0.47 0.45 78.1 0 0 220.39 583.84
  L 216.09 584.00
  A 1.59 1.59 0.0 0 1 214.44 582.46
  L 214.21 575.22
  L 214.05 560.50
  Q 215.61 557.11 215.18 553.19
  A 1.37 1.36 -31.7 0 1 215.40 552.27
  C 217.32 549.40 219.92 548.02 222.57 545.87
  Q 229.60 540.16 236.47 533.75
  A 0.33 0.33 0.0 0 0 236.41 533.22
  Q 236.28 533.14 235.69 533.21
  Q 241.24 528.36 246.58 523.33
  C 250.18 519.93 255.23 514.29 255.18 509.56
  C 255.08 501.20 246.10 500.90 239.65 501.01
  Q 214.05 501.45 188.46 501.00
  L 188.44 500.59
  A 0.54 0.54 0.0 0 0 187.90 500.08
  L 181.01 500.08
  A 0.54 0.53 -2.3 0 1 180.47 499.59
  Q 179.94 493.71 181.45 489.55
  C 181.76 488.68 181.40 487.66 181.97 486.50
  Q 184.92 480.47 188.38 477.57
  A 2.49 2.45 -76.5 0 1 189.02 477.17
  Q 191.03 476.30 195.51 473.03
  C 198.07 471.15 201.20 470.76 204.65 470.79
  Q 229.03 471.01 252.62 470.73
  A 7.81 7.71 54.7 0 1 255.49 471.24
  Q 260.25 473.06 263.17 473.85
  Q 268.41 475.28 270.70 476.69
  Q 277.59 480.95 280.69 487.06
  Q 284.36 494.29 285.20 498.28
  Q 285.59 500.13 285.99 503.21
  A 5.81 5.66 44.2 0 1 286.02 504.33
  Q 285.77 507.41 286.11 509.46
  Q 286.55 512.18 286.11 514.50
  Q 283.18 529.62 271.71 539.45
  Q 265.81 544.50 259.92 549.17
  Q 259.47 549.52 259.76 550.01
  Q 259.89 550.23 260.27 550.21
  Z"
/>
<path fill="#efebee" d="
  M 732.32 474.53
  Q 725.87 493.31 722.84 500.07
  Q 712.91 522.22 704.56 545.89
  A 0.96 0.17 -80.0 0 0 704.52 546.00
  L 702.62 549.77
  A 2.02 2.00 13.1 0 1 700.82 550.88
  L 682.51 550.88
  A 2.19 2.18 80.7 0 1 680.44 549.39
  L 676.64 538.21
  Q 679.73 542.62 680.80 547.45
  A 2.81 2.81 0.0 0 0 683.54 549.65
  L 700.41 549.65
  A 2.30 2.29 10.6 0 0 702.55 548.19
  Q 708.14 533.86 711.30 524.72
  C 712.34 521.70 713.68 519.35 714.62 516.42
  Q 714.97 515.31 715.97 513.11
  Q 723.83 495.75 724.99 492.44
  Q 729.26 480.18 732.32 474.53
  Z"
/>
<path fill="#efebee" d="
  M 763.20 485.68
  Q 764.36 517.47 763.49 550.01
  A 0.93 0.93 0.0 0 1 762.59 550.92
  L 755.79 551.14
  L 751.79 551.14
  L 749.21 551.15
  L 746.96 551.12
  L 744.08 550.98
  A 2.05 2.05 0.0 0 1 742.12 548.93
  L 742.22 478.26
  Q 743.47 478.87 743.48 480.75
  C 743.56 495.96 744.01 507.46 743.61 521.42
  Q 743.47 526.26 743.31 548.65
  A 1.44 1.44 0.0 0 0 744.75 550.10
  L 761.25 550.10
  A 1.44 1.43 -1.0 0 0 762.69 548.62
  Q 762.36 537.38 762.66 527.71
  Q 762.77 524.08 762.60 506.80
  Q 762.49 496.24 763.20 485.68
  Z"
/>
<path fill="#b2b0b3" d="
  M 816.97 485.86
  L 812.46 485.84
  L 816.97 485.86
  Z"
/>
<path fill="#b2b0b3" d="
  M 182.21 500.91
  Q 181.42 501.02 180.71 500.81
  Q 181.64 500.48 182.21 500.91
  Z"
/>
<path fill="#efebee" d="
  M 170.05 578.45
  Q 162.53 574.63 155.25 570.51
  Q 149.97 567.52 146.37 564.28
  Q 141.74 560.12 137.07 556.22
  A 11.77 11.66 2.8 0 1 135.04 554.00
  Q 130.20 547.08 124.67 539.13
  C 121.93 535.19 120.09 531.48 118.67 526.77
  Q 115.52 516.30 114.19 505.76
  Q 114.10 505.01 114.21 503.56
  Q 114.35 503.36 114.61 503.35
  A 0.36 0.36 0.0 0 1 114.98 503.67
  Q 116.04 513.81 118.95 524.73
  Q 120.71 531.34 124.00 536.50
  Q 126.88 541.02 131.85 547.26
  A 0.45 0.12 75.1 0 1 131.89 547.33
  L 135.91 554.00
  A 2.06 1.94 -88.3 0 0 136.38 554.53
  L 150.82 566.06
  A 0.15 0.10 55.3 0 0 150.90 566.09
  Q 151.63 566.11 153.31 567.35
  Q 157.53 570.47 163.83 572.73
  A 2.51 2.48 75.9 0 1 164.67 573.24
  Q 167.30 575.63 170.49 576.86
  A 0.53 0.53 0.0 0 1 170.49 577.85
  Q 170.32 577.92 170.05 578.45
  Z"
/>
<path fill="#b2b0b3" d="
  M 811.13 504.46
  L 811.11 508.23
  L 811.13 504.46
  Z"
/>
<path fill="#b2b0b3" d="
  M 437.06 510.31
  L 424.78 510.35
  L 437.06 510.31
  Z"
/>
<path fill="#b2b0b3" d="
  M 412.96 510.61
  L 410.54 510.58
  L 412.96 510.61
  Z"
/>
<path fill="#efebee" d="
  M 624.10 513.66
  L 603.80 515.15
  A 2.66 2.30 30.7 0 0 603.41 515.22
  Q 595.23 517.32 593.75 525.04
  L 593.88 526.82
  C 594.45 532.67 600.28 536.56 605.63 537.04
  Q 611.08 537.53 616.26 534.42
  Q 622.97 530.39 625.13 522.07
  L 625.38 517.53
  A 0.29 0.29 0.0 0 1 625.85 517.31
  Q 626.62 517.90 626.38 519.28
  Q 625.93 521.87 625.65 524.15
  A 2.73 2.67 61.4 0 1 625.42 524.97
  Q 620.62 535.78 609.20 537.81
  A 3.16 3.05 42.9 0 1 608.15 537.83
  Q 606.13 537.53 602.53 537.25
  Q 601.68 537.18 598.89 535.61
  C 594.91 533.37 592.81 529.90 592.74 525.32
  Q 592.67 521.35 596.33 517.86
  Q 600.32 514.03 606.23 513.82
  Q 612.92 513.59 623.25 512.75
  Q 624.16 512.68 624.10 513.66
  Z"
/>
<path fill="#b2b0b3" d="
  M 593.88 526.82
  L 593.75 525.04
  Q 594.00 526.04 593.88 526.82
  Z"
/>
<path fill="#efebee" d="
  M 552.94 551.27
  C 554.54 549.61 558.12 550.47 560.26 550.30
  A 1.10 1.10 0.0 0 0 561.27 549.05
  Q 561.03 547.39 560.42 545.59
  A 0.56 0.52 -54.4 0 1 560.39 545.36
  L 560.58 534.51
  A 1.35 1.35 0.0 0 0 559.23 533.13
  L 548.59 533.13
  A 0.39 0.38 -84.4 0 1 548.22 532.67
  Q 548.34 532.08 549.21 532.10
  L 560.84 532.13
  A 0.67 0.66 -0.9 0 1 561.51 532.77
  L 562.16 550.73
  A 0.45 0.45 0.0 0 1 561.72 551.20
  L 552.94 551.27
  Z"
/>
<path fill="#efebee" d="
  M 235.69 533.21
  Q 236.28 533.14 236.41 533.22
  A 0.33 0.33 0.0 0 1 236.47 533.75
  Q 229.60 540.16 222.57 545.87
  C 219.92 548.02 217.32 549.40 215.40 552.27
  A 1.37 1.36 -31.7 0 0 215.18 553.19
  Q 215.61 557.11 214.05 560.50
  L 213.84 552.27
  A 0.95 0.95 0.0 0 1 214.17 551.51
  L 235.69 533.21
  Z"
/>
<path fill="#b2b0b3" d="
  M 749.21 551.15
  L 746.96 551.12
  L 749.21 551.15
  Z"
/>
<path fill="#b2b0b3" d="
  M 755.79 551.14
  L 751.79 551.14
  L 755.79 551.14
  Z"
/>
<path fill="#efebee" d="
  M 276.79 584.71
  Q 276.36 583.36 277.57 583.32
  Q 282.39 583.17 287.36 583.72
  A 1.13 1.13 0.0 0 0 288.61 582.55
  Q 288.37 576.90 287.96 566.76
  Q 287.68 559.84 288.37 553.71
  A 1.02 1.01 -88.0 0 0 287.32 552.58
  Q 281.23 552.79 270.56 552.84
  Q 269.57 552.85 269.17 552.09
  Q 268.99 551.75 269.46 551.64
  L 288.92 551.21
  A 0.69 0.69 0.0 0 1 289.62 551.90
  L 289.62 584.04
  A 0.56 0.56 0.0 0 1 289.06 584.60
  L 276.79 584.71
  Z"
/>
<path fill="#b2b0b3" d="
  M 404.30 553.16
  L 403.17 553.13
  Q 403.78 552.78 404.30 553.16
  Z"
/>
<path fill="#efebee" d="
  M 214.63 584.96
  Q 213.27 581.12 214.21 575.22
  L 214.44 582.46
  A 1.59 1.59 0.0 0 0 216.09 584.00
  L 220.39 583.84
  A 0.47 0.45 78.1 0 1 220.83 584.14
  Q 220.96 584.49 220.67 584.72
  Q 220.58 584.80 220.37 584.80
  Q 218.19 584.75 214.63 584.96
  Z"
/>
</svg>
